<svg xmlns="http://www.w3.org/2000/svg" height="800" width="1200" viewBox="-72.24396 -15.30765 626.11432 91.8459"><defs><clipPath id="a" clipPathUnits="userSpaceOnUse"><path d="M0 858.898h612.283V0H0z"/></clipPath></defs><g clip-path="url(#a)" transform="matrix(2.40211 0 0 -2.40211 -851.9592 145.1098)"><path d="M463.6973 39.6514c-.165-.109-.365-.234-.547-.341l-.057-.031.057-.007c3.577-.981 7.121-.945 7.802 1.288.881 2.882-4.814 5.975-7.501 7.449-.575.316-.826.119-.458-.302 1.696-1.955 4.113-5.798.704-8.056" fill="#f47216"/><path d="M494.5537 52.2939h-3.016v2.527h3.016v3.744h2.925v-3.744h4.808v-2.527h-4.808v-7.604c0-1.902.53-2.9 2.967-2.9.93 0 1.977.268 1.977.268v-2.632c-1.015-.138-1.754-.219-2.905-.219-4.607 0-4.964 3.318-4.964 5.14zM536.387 39.17h-2.995v15.665h2.995zm5.2888 7.9482c0-4.267 3.516-5.331 5.183-5.331 3.179 0 5.422 1.797 5.422 5.393 0 3.594-2.55 5.241-5.453 5.241-1.646 0-5.152-.968-5.152-5.303m-3.044.031c0 5.89 4.763 7.892 8.069 7.892 3.758 0 5.58-2.155 5.58-2.155l.155 1.948h2.736v-15.695h-2.739l-.152 2.074s-1.874-2.077-5.611-2.077c-3.752 0-8.038 2.178-8.038 8.013m-1.7832 11.302c0 1.081-.876 1.958-1.958 1.958-1.081 0-1.958-.877-1.958-1.958 0-1.082.877-1.958 1.958-1.958 1.082 0 1.958.876 1.958 1.958m-5.6425-6.3096v2.653c-2.957.27-5.033-.439-6.65-2.128l-.156 2.161h-2.84v-15.678h2.996v8.123c0 2.266 1.826 5.14 6.65 4.869m-28.1993-5.0518c0 4.9 3.62 8.046 8.459 8.046 4.805 0 8.106-3.511 8.106-7.775 0 0 0-.667-.063-1.271l-13.387-.058c.128-2.419 2.921-4.244 5.805-4.244 3.103 0 4.943 1.923 4.943 1.923l2.144-1.885c-2.176-2.087-4.546-2.721-7.087-2.721-5.279 0-8.92 3.084-8.92 7.864zm13.277 1.344c0 2.131-2.144 3.905-4.778 3.905-2.818 0-5.149-1.739-5.339-3.905zM485.127 48.5c-3.014.539-5.979.915-5.979 2.32 0 .916.91 1.721 3.548 1.721 1.962 0 4.225-.453 4.837-1.842l2.779 1.167c-1.063 2.135-4.208 3.163-7.823 3.163-3.16 0-6.552-1.196-6.552-4.395 0-2.77 2.522-3.632 6.68-4.415 2.779-.522 5.339-.786 5.339-2.284 0-.945-1.26-2.158-4.409-2.158-2.241 0-4.501.47-5.191 2.065l-2.694-1.131c1.105-2.462 4.037-3.736 7.435-3.736 6.783 0 8.094 3.227 8.094 5.059 0 3.051-3.035 3.926-6.064 4.466m-86.2872 3.9209c-2.904 0-5.455-1.647-5.455-5.241 0-3.595 2.244-5.393 5.423-5.393 1.667 0 5.181.677 5.181 5.33 0 4.656-3.504 5.304-5.149 5.304m.156-13.284c-3.751 0-5.611 2.384-5.611 2.384v-6.602h-2.892v19.916h2.737l.155-1.948s1.819 2.153 5.579 2.153c3.307 0 8.068-1.685 8.068-7.89s-4.283-8.013-8.036-8.013m22.346 7.9813c0-4.267 3.514-5.331 5.183-5.331 3.179 0 5.422 1.797 5.422 5.393 0 3.594-2.55 5.241-5.453 5.241-1.647 0-5.152-.968-5.152-5.303m-3.044.031c0 5.89 4.761 7.892 8.071 7.892 3.756 0 5.578-2.155 5.578-2.155l.155 1.948h2.736v-15.695h-2.729l-.162 2.074s-1.874-2.077-5.611-2.077c-3.753 0-8.038 2.178-8.038 8.013m.2188 4.9924v2.653c-2.956.27-5.032-.439-6.65-2.128l-.155 2.161h-2.842v-15.678h2.997v8.123c0 2.266 1.827 5.14 6.65 4.869M364.1367 48.5c-3.016.539-5.979.915-5.979 2.32 0 .916.909 1.721 3.547 1.721 1.962 0 4.223-.453 4.835-1.842l2.783 1.167c-1.065 2.135-4.211 3.163-7.825 3.163-3.16 0-6.552-1.196-6.552-4.395 0-2.77 2.52-3.632 6.68-4.415 2.777-.522 5.341-.786 5.341-2.284 0-.945-1.262-2.158-4.411-2.158-2.239 0-4.501.47-5.191 2.065l-2.694-1.131c1.105-2.462 4.037-3.736 7.435-3.736 6.783 0 8.095 3.227 8.095 5.059 0 3.051-3.036 3.926-6.064 4.466m16.0098 6.541c-4.006 0-8.748-2.002-8.748-7.892 0-5.835 4.266-8.101 8.748-8.101 4.481 0 8.746 2.266 8.746 8.101 0 5.89-4.741 7.892-8.746 7.892m0-13.254c-2.462 0-5.704 1.065-5.704 5.331 0 4.335 3.596 5.216 5.704 5.216 2.107 0 5.704-.881 5.704-5.216 0-4.266-3.243-5.331-5.704-5.331" fill="#231f20"/><path d="M463.0977 39.2803s-4.508-2.831-12.459-2.831c-3.081 0-5.676.471-6.773 1.55-1.156 1.136-1.782 3.051-1.782 4.812 0 1.509.626 2.777 1.931 2.777 3.354 0 13.8-5.314 19.083-6.308" fill="#db1d2b"/><path d="M448.0791 55.7051c.165.109.365.233.547.34l.057.032-.057.006c-3.577.982-7.121.945-7.802-1.287-.881-2.883 4.814-5.976 7.501-7.45.575-.316.824-.119.458.302-1.695 1.955-4.113 5.799-.704 8.057" fill="#f47216"/><path d="M448.6787 56.0752s4.508 2.831 12.461 2.831c3.081 0 5.674-.471 6.771-1.55 1.156-1.136 1.782-3.051 1.782-4.812 0-1.508-.626-2.777-1.931-2.777-3.354 0-13.8 5.314-19.083 6.308" fill="#db1d2b"/></g></svg>